<svg width="211" height="56" viewBox="0 0 211 56" fill="none" xmlns="http://www.w3.org/2000/svg">
<path d="M64.8019 34.0133L71.6348 19.0346C71.7013 18.9011 71.8139 18.7896 72.0171 18.7896H72.2424C72.4455 18.7896 72.5563 18.9011 72.6247 19.0346L79.4113 34.0133C79.5462 34.3023 79.367 34.5912 79.0291 34.5912H78.1297C77.9266 34.5912 77.7918 34.4577 77.7475 34.3461L76.0836 30.6742H68.1057L66.4658 34.3461C66.4215 34.4577 66.2867 34.5912 66.0836 34.5912H65.1842C64.8481 34.5912 64.6671 34.3023 64.8019 34.0133ZM75.4778 29.2953C74.3772 26.8687 73.2969 24.4219 72.1962 21.9952H72.0171L68.7355 29.2953H75.4778Z" fill="#526E2B"/>
<path d="M81.5461 32.2558C81.6587 32.1224 81.7714 31.9669 81.884 31.8334C82.1093 31.5445 82.3568 31.3653 82.6707 31.6323C82.8277 31.7658 84.4694 33.3238 86.4694 33.3238C88.2903 33.3238 89.4814 32.1882 89.4814 30.8752C89.4814 29.3391 88.1333 28.4266 85.5479 27.3586C83.0752 26.2907 81.5922 25.2886 81.5922 22.7522C81.5922 21.238 82.8055 18.7913 86.3789 18.7913C88.5821 18.7913 90.222 19.9269 90.222 19.9269C90.3568 19.9945 90.6264 20.2615 90.3568 20.6839C90.2663 20.8174 90.1776 20.9729 90.0872 21.1064C89.884 21.4172 89.6606 21.5069 89.3004 21.3075C89.1435 21.2179 87.727 20.2835 86.3568 20.2835C83.9745 20.2835 83.2543 21.7976 83.2543 22.7321C83.2543 24.2224 84.4011 25.0911 86.2884 25.8701C89.3226 27.0935 91.2783 28.2291 91.2783 30.8112C91.2783 33.1263 89.053 34.8178 86.4233 34.8178C83.7714 34.8178 81.9727 33.2817 81.6809 33.0147C81.5018 32.8557 81.2765 32.6783 81.5461 32.2558Z" fill="#526E2B"/>
<path d="M93.9744 19.5465C93.9744 19.2576 94.1997 19.0126 94.5136 19.0126H95.1655C95.4573 19.0126 95.7048 19.2576 95.7048 19.5465V25.8445L102.717 19.2338C102.807 19.1223 103.009 19.0107 103.143 19.0107H104.244C104.648 19.0107 104.874 19.4551 104.514 19.7898L97.4111 26.3547L104.85 33.8999C105.007 34.0553 104.962 34.5893 104.467 34.5893H103.321C103.164 34.5893 102.961 34.4997 102.916 34.4338L95.7011 26.9783V34.0553C95.7011 34.3442 95.4536 34.5893 95.1618 34.5893H94.5099C94.196 34.5893 93.9707 34.3442 93.9707 34.0553V19.5465H93.9744Z" fill="#526E2B"/>
<path d="M115.527 19.1021C115.572 18.9248 115.753 18.7913 115.932 18.7913H116.292C116.449 18.7913 116.63 18.9028 116.674 19.0363L121.125 31.2995C121.169 31.2995 121.193 31.2995 121.237 31.2995L125.62 19.0363C125.664 18.9028 125.845 18.7913 126.002 18.7913H126.362C126.541 18.7913 126.722 18.9248 126.767 19.1021L129.666 34.0571C129.732 34.368 129.598 34.5911 129.261 34.5911H128.362C128.183 34.5911 128.002 34.4356 127.958 34.2802L125.958 22.818C125.936 22.818 125.891 22.818 125.867 22.818L121.732 34.5691C121.688 34.7026 121.485 34.8142 121.35 34.8142H120.946C120.811 34.8142 120.608 34.7026 120.563 34.5691L116.382 22.818C116.36 22.818 116.314 22.818 116.292 22.818L114.336 34.2802C114.314 34.4356 114.111 34.5911 113.932 34.5911H113.033C112.695 34.5911 112.56 34.368 112.628 34.0571L115.527 19.1021Z" fill="#526E2B"/>
<path d="M132.698 19.4351C132.698 19.212 132.877 19.0127 133.125 19.0127H141.98C142.227 19.0127 142.406 19.2138 142.406 19.4351V20.0806C142.406 20.3037 142.227 20.5031 141.98 20.5031H134.429V25.9343H140.879C141.105 25.9343 141.306 26.1354 141.306 26.3567V27.0022C141.306 27.2473 141.103 27.4246 140.879 27.4246H134.429V33.099H141.98C142.227 33.099 142.406 33.3002 142.406 33.5215V34.167C142.406 34.3901 142.227 34.5894 141.98 34.5894H133.125C132.877 34.5894 132.698 34.3883 132.698 34.167V19.4351Z" fill="#526E2B"/>
<path d="M149.419 20.5048H145.507C145.26 20.5048 145.081 20.3036 145.081 20.0824V19.4368C145.081 19.2137 145.26 19.0144 145.507 19.0144H155.036C155.284 19.0144 155.463 19.2156 155.463 19.4368V20.0824C155.463 20.3055 155.284 20.5048 155.036 20.5048H151.125V34.1705C151.125 34.3936 150.922 34.5929 150.698 34.5929H149.845C149.62 34.5929 149.419 34.3918 149.419 34.1705V20.5048Z" fill="#526E2B"/>
<path d="M158.386 19.4351C158.386 19.212 158.589 19.0127 158.813 19.0127H159.69C159.937 19.0127 160.117 19.2138 160.117 19.4351V25.9343H169.241V19.4351C169.241 19.212 169.42 19.0127 169.668 19.0127H170.545C170.77 19.0127 170.972 19.2138 170.972 19.4351V34.1688C170.972 34.3919 170.768 34.5912 170.545 34.5912H169.668C169.42 34.5912 169.241 34.3901 169.241 34.1688V27.4246H160.117V34.1688C160.117 34.3919 159.937 34.5912 159.69 34.5912H158.813C158.588 34.5912 158.386 34.3901 158.386 34.1688V19.4351Z" fill="#526E2B"/>
<path d="M181.804 18.7896C186.299 18.7896 189.895 22.3719 189.895 26.8229C189.895 31.274 186.299 34.8125 181.804 34.8125C177.309 34.8125 173.736 31.274 173.736 26.8229C173.736 22.3738 177.309 18.7896 181.804 18.7896ZM181.804 33.2563C185.378 33.2563 188.321 30.3633 188.321 26.8248C188.321 23.2863 185.378 20.3476 181.804 20.3476C178.231 20.3476 175.309 23.2845 175.309 26.8248C175.309 30.3633 178.231 33.2563 181.804 33.2563Z" fill="#526E2B"/>
<path d="M192.593 19.4351C192.593 19.212 192.772 19.0127 192.997 19.0127H198.031C202.369 19.0127 205.921 22.5073 205.921 26.7809C205.921 31.0985 202.369 34.5931 198.031 34.5931H192.997C192.772 34.5931 192.593 34.3919 192.593 34.1706V19.4351ZM197.671 33.057C201.357 33.057 204.031 30.4529 204.031 26.7809C204.031 23.1309 201.357 20.5268 197.671 20.5268H194.299V33.057H197.671Z" fill="#526E2B"/>
<path d="M69.8766 41.6042C71.2949 41.6042 72.3198 42.0907 73.2764 42.8971C73.3891 43.0087 73.402 43.1751 73.2912 43.2866L72.9126 43.6615C72.8 43.8005 72.6873 43.7859 72.547 43.6469C71.8157 43.0215 70.8184 42.6045 69.8637 42.6045C67.6439 42.6045 65.945 44.4552 65.945 46.6094C65.945 48.7507 67.6439 50.6014 69.8637 50.6014C71.0862 50.6014 71.8027 50.1149 72.547 49.559C72.6873 49.4475 72.8 49.4621 72.8849 49.517L73.306 49.8918C73.4186 49.976 73.3909 50.1698 73.2912 50.2667C72.3364 51.1847 71.1287 51.6163 69.8785 51.6163C67.0696 51.6163 64.8074 49.4054 64.8074 46.624C64.8074 43.8426 67.0678 41.6042 69.8766 41.6042Z" fill="#526E2B"/>
<path d="M91.7198 41.6042C94.5286 41.6042 96.7761 43.8444 96.7761 46.6258C96.7761 49.4072 94.5286 51.6181 91.7198 51.6181C88.9109 51.6181 86.6782 49.4072 86.6782 46.6258C86.6782 43.8444 88.9091 41.6042 91.7198 41.6042ZM91.7198 50.6453C93.9525 50.6453 95.7936 48.8367 95.7936 46.6258C95.7936 44.4149 93.9543 42.5789 91.7198 42.5789C89.4852 42.5789 87.6607 44.4149 87.6607 46.6258C87.6607 48.8367 89.4852 50.6453 91.7198 50.6453Z" fill="#526E2B"/>
<path d="M111.974 41.7999C112.002 41.6884 112.115 41.6042 112.227 41.6042H112.453C112.551 41.6042 112.663 41.6737 112.691 41.7579L115.472 49.4219C115.5 49.4219 115.515 49.4219 115.542 49.4219L118.281 41.7579C118.309 41.6737 118.421 41.6042 118.519 41.6042H118.745C118.857 41.6042 118.97 41.6884 118.998 41.7999L120.809 51.1463C120.852 51.3402 120.767 51.481 120.556 51.481H119.995C119.882 51.481 119.769 51.384 119.742 51.2853L118.492 44.1223C118.477 44.1223 118.449 44.1223 118.436 44.1223L115.853 51.4663C115.825 51.5505 115.697 51.6199 115.614 51.6199H115.361C115.276 51.6199 115.151 51.5505 115.123 51.4663L112.51 44.1223C112.495 44.1223 112.468 44.1223 112.455 44.1223L111.232 51.2853C111.217 51.3822 111.092 51.481 110.979 51.481H110.418C110.207 51.481 110.122 51.342 110.165 51.1463L111.974 41.7999Z" fill="#526E2B"/>
<path d="M134.913 42.0082C134.913 41.8692 135.025 41.7449 135.18 41.7449H138.285C140.013 41.7449 141.432 43.1365 141.432 44.8189C141.432 46.5433 140.013 47.9478 138.299 47.9478H135.982V51.2156C135.982 51.3546 135.856 51.479 135.714 51.479H135.18C135.025 51.479 134.913 51.3546 134.913 51.2156V42.0082ZM138.213 46.9182C139.365 46.9182 140.347 45.9856 140.347 44.7896C140.347 43.6632 139.365 42.8 138.213 42.8H135.98V46.9164H138.213V46.9182Z" fill="#526E2B"/>
<path d="M153.877 51.1189L158.146 41.7579C158.189 41.6737 158.259 41.6042 158.384 41.6042H158.525C158.65 41.6042 158.721 41.6737 158.763 41.7579L163.005 51.1189C163.09 51.2999 162.977 51.481 162.767 51.481H162.205C162.08 51.481 161.995 51.3968 161.967 51.3274L160.927 49.0324H155.941L154.916 51.3274C154.889 51.3968 154.804 51.481 154.678 51.481H154.117C153.904 51.4791 153.792 51.2999 153.877 51.1189ZM160.547 48.1692C159.858 46.6532 159.184 45.1226 158.497 43.6067H158.384L156.335 48.1692H160.547Z" fill="#526E2B"/>
<path d="M176.477 41.8548C176.477 41.7158 176.602 41.6042 176.745 41.6042H177.095L183.43 49.42C183.444 49.42 183.444 49.42 183.457 49.42V42.0066C183.457 41.8676 183.57 41.7432 183.725 41.7432H184.216C184.357 41.7432 184.484 41.8676 184.484 42.0066V51.3676C184.484 51.5066 184.359 51.6181 184.216 51.6181H183.963L177.517 43.6487H177.502V51.214C177.502 51.353 177.389 51.4773 177.236 51.4773H176.745C176.604 51.4773 176.477 51.353 176.477 51.214V41.8548Z" fill="#526E2B"/>
<path d="M201.269 46.7922L197.884 42.1473C197.771 41.9663 197.884 41.7432 198.109 41.7432H198.768C198.866 41.7432 198.951 41.8127 198.994 41.8675L201.83 45.748L204.667 41.8675C204.709 41.8127 204.792 41.7432 204.892 41.7432H205.551C205.777 41.7432 205.889 41.9663 205.777 42.1473L202.349 46.7794V51.2157C202.349 51.3547 202.224 51.4791 202.081 51.4791H201.533C201.378 51.4791 201.267 51.3547 201.267 51.2157V46.7922H201.269Z" fill="#526E2B"/>
<path d="M118.108 5.08899H116.152C116.028 5.08899 115.938 4.98842 115.938 4.87687V4.55319C115.938 4.44164 116.028 4.34106 116.152 4.34106H120.917C121.04 4.34106 121.131 4.44164 121.131 4.55319V4.87687C121.131 4.98842 121.04 5.08899 120.917 5.08899H118.961V11.921C118.961 12.0325 118.859 12.1331 118.747 12.1331H118.32C118.207 12.1331 118.106 12.0325 118.106 11.921V5.08899H118.108Z" fill="#526E2B"/>
<path d="M131.581 4.55515C131.581 4.4436 131.683 4.34302 131.796 4.34302H132.233C132.357 4.34302 132.447 4.4436 132.447 4.55515V7.80471H137.011V4.55515C137.011 4.4436 137.101 4.34302 137.225 4.34302H137.663C137.775 4.34302 137.877 4.4436 137.877 4.55515V11.9211C137.877 12.0326 137.775 12.1332 137.663 12.1332H137.225C137.101 12.1332 137.011 12.0326 137.011 11.9211V8.54899H132.447V11.9211C132.447 12.0326 132.357 12.1332 132.233 12.1332H131.796C131.683 12.1332 131.581 12.0326 131.581 11.9211V4.55515Z" fill="#526E2B"/>
<path d="M149.38 4.55515C149.38 4.4436 149.471 4.34302 149.594 4.34302H154.023C154.147 4.34302 154.237 4.4436 154.237 4.55515V4.87882C154.237 4.99037 154.147 5.09095 154.023 5.09095H150.246V7.80654H153.471C153.583 7.80654 153.685 7.90712 153.685 8.01866V8.34235C153.685 8.46487 153.583 8.55447 153.471 8.55447H150.246V11.3926H154.023C154.147 11.3926 154.237 11.4932 154.237 11.6047V11.9284C154.237 12.0399 154.147 12.1405 154.023 12.1405H149.594C149.471 12.1405 149.38 12.0399 149.38 11.9284V4.55515Z" fill="#526E2B"/>
<path d="M107.587 8.7829H65.1344C64.911 8.7829 64.73 8.60369 64.73 8.38242C64.73 8.16114 64.911 7.98193 65.1344 7.98193H107.587C107.81 7.98193 107.991 8.16114 107.991 8.38242C107.993 8.60186 107.812 8.7829 107.587 8.7829Z" fill="#526E2B"/>
<path d="M205.818 8.7829H163.365C163.142 8.7829 162.961 8.60369 162.961 8.38242C162.961 8.16114 163.142 7.98193 163.365 7.98193H205.818C206.041 7.98193 206.222 8.16114 206.222 8.38242C206.222 8.60186 206.041 8.7829 205.818 8.7829Z" fill="#526E2B"/>
<g clip-path="url(#clip0_1007_1184)">
<path d="M31.6375 4.84137L4.741 50.9027C4.54098 51.2401 4.78806 51.6589 5.1881 51.6589H59.8283C60.2283 51.6589 60.4754 51.2401 60.2754 50.9027L33.3789 4.84137C32.9906 4.1782 32.014 4.1782 31.6258 4.84137H31.6375ZM23.2838 49.6694H8.67076C8.27073 49.6694 8.02364 49.2506 8.22366 48.9132L8.82372 47.8893L20.6601 27.6102L32.0611 8.08742C32.2611 7.75002 32.7553 7.75002 32.9553 8.08742L44.3563 27.6102L48.7449 35.1378L56.7927 48.9132C56.9927 49.2506 56.7457 49.6694 56.3456 49.6694H23.2838Z" fill="#526E2B"/>
<path d="M53.5218 47.4238L53.1924 47.61H53.6277L53.5218 47.4238Z" fill="#526E2B"/>
<path d="M52.8276 46.2373L50.4038 47.6102H50.8862L52.9452 46.4351L52.8276 46.2373Z" fill="#526E2B"/>
<path d="M52.1216 45.0388L47.6035 47.6101H48.0977L52.2392 45.2482L52.1216 45.0388Z" fill="#526E2B"/>
<path d="M51.4273 43.8406L44.8149 47.6102H45.2973L51.545 44.05L51.4273 43.8406Z" fill="#526E2B"/>
<path d="M50.7333 42.6421L42.0266 47.6101H42.509L50.8509 42.8515L50.7333 42.6421Z" fill="#526E2B"/>
<path d="M50.0273 41.4438L39.2263 47.6102H39.7087L50.1449 41.6533L50.0273 41.4438Z" fill="#526E2B"/>
<path d="M49.333 40.2571L36.4377 47.6101H36.9201L49.4507 40.4549L49.333 40.2571Z" fill="#526E2B"/>
<path d="M48.6272 39.0586L33.6494 47.61H34.1318L48.7567 39.268L48.6272 39.0586Z" fill="#526E2B"/>
<path d="M47.9802 37.9417L31.0728 47.61H31.5551L48.1096 38.1511L47.9802 37.9417Z" fill="#526E2B"/>
<path d="M46.8976 36.0803L46.7682 35.8708L26.2017 47.6101H26.6841L46.8976 36.0803Z" fill="#526E2B"/>
<path d="M46.5329 35.4753L25.2722 47.6102H25.7546L46.6624 35.6731L46.5329 35.4753Z" fill="#526E2B"/>
<path d="M46.3093 35.0679L24.3308 47.6099H24.825L46.4269 35.2773L46.3093 35.0679Z" fill="#526E2B"/>
<path d="M46.074 34.6724L23.4014 47.61H23.8838L46.1917 34.8818L46.074 34.6724Z" fill="#526E2B"/>
<path d="M45.8387 34.2769L22.4719 47.6101H22.9543L45.9564 34.4863L45.8387 34.2769Z" fill="#526E2B"/>
<path d="M45.6035 33.8813L21.5425 47.6101H22.0249L45.7329 34.0791L45.6035 33.8813Z" fill="#526E2B"/>
<path d="M45.3797 33.4741L20.6128 47.6101H21.0952L45.4974 33.6835L45.3797 33.4741Z" fill="#526E2B"/>
<path d="M45.1445 33.0786L19.6833 47.6102H20.1657L45.2621 33.288L45.1445 33.0786Z" fill="#526E2B"/>
<path d="M44.9092 32.6829L18.7539 47.61H19.2363L45.0268 32.8923L44.9092 32.6829Z" fill="#526E2B"/>
<path d="M44.6739 32.2756L17.8245 47.61H18.3069L44.8034 32.4851L44.6739 32.2756Z" fill="#526E2B"/>
<path d="M44.4387 31.8801L16.895 47.6101H17.3774L44.5681 32.0895L44.4387 31.8801Z" fill="#526E2B"/>
<path d="M44.215 31.4846L15.9536 47.6101H16.4478L44.3326 31.694L44.215 31.4846Z" fill="#526E2B"/>
<path d="M43.9797 31.0889L15.0242 47.61H15.5066L44.0974 31.2983L43.9797 31.0889Z" fill="#526E2B"/>
<path d="M43.7444 30.6816L14.0947 47.61H14.5771L43.8621 30.8911L43.7444 30.6816Z" fill="#526E2B"/>
<path d="M32.3552 34.2768L42.4738 28.5061L42.3444 28.2966L32.1082 34.1372L32.3552 34.2768Z" fill="#526E2B"/>
<path d="M30.2726 35.4636L30.0255 35.324L12.824 45.1552L12.5769 45.5624L30.2726 35.4636Z" fill="#526E2B"/>
<path d="M31.8845 34.0093L42.2384 28.0989L42.1207 27.9011L31.6492 33.8813L31.8845 34.0093Z" fill="#526E2B"/>
<path d="M29.096 34.8003L13.7534 43.5611L13.5063 43.9683L29.3431 34.9399L29.096 34.8003Z" fill="#526E2B"/>
<path d="M30.9548 33.4858L41.7676 27.3078L41.6499 27.0984L30.7078 33.3462L30.9548 33.4858Z" fill="#526E2B"/>
<path d="M30.4843 33.218L41.5442 26.9121L41.4147 26.7026L30.249 33.0784L30.4843 33.218Z" fill="#526E2B"/>
<path d="M28.1664 34.2651L14.6828 41.9672L14.4475 42.3744L28.4135 34.4048L28.1664 34.2651Z" fill="#526E2B"/>
<path d="M29.5549 32.6829L41.0736 26.1093L40.9559 25.8999L29.3196 32.5432L29.5549 32.6829Z" fill="#526E2B"/>
<path d="M27.2371 33.73L15.6125 40.3733L15.3772 40.7805L27.4842 33.8696L27.2371 33.73Z" fill="#526E2B"/>
<path d="M29.096 32.4153L40.8382 25.7138L40.7205 25.5044L28.8489 32.2757L29.096 32.4153Z" fill="#526E2B"/>
<path d="M26.3075 33.2065L16.542 38.7795L16.3066 39.1867L26.5546 33.3462L26.3075 33.2065Z" fill="#526E2B"/>
<path d="M28.1665 31.8917L40.3794 24.9109L40.25 24.7131L27.9194 31.7521L28.1665 31.8917Z" fill="#526E2B"/>
<path d="M27.696 31.6241L40.1442 24.5153L40.0265 24.3059L27.4607 31.4844L27.696 31.6241Z" fill="#526E2B"/>
<path d="M25.378 32.6714L17.4832 37.1856L17.2361 37.5928L25.6133 32.811L25.378 32.6714Z" fill="#526E2B"/>
<path d="M26.7664 31.089L39.6734 23.7243L39.5558 23.5149L26.5193 30.9494L26.7664 31.089Z" fill="#526E2B"/>
<path d="M24.4484 32.136L18.4126 35.5915L18.1655 35.9987L24.6838 32.2756L24.4484 32.136Z" fill="#526E2B"/>
<path d="M26.2959 30.8215L39.45 23.3172L39.3206 23.1194L26.0605 30.6819L26.2959 30.8215Z" fill="#526E2B"/>
<path d="M23.5191 31.6125L19.3423 33.9976L19.0952 34.4048L23.7545 31.7405L23.5191 31.6125Z" fill="#526E2B"/>
<path d="M25.3662 30.2977L38.9792 22.5258L38.8615 22.3164L25.1309 30.1581L25.3662 30.2977Z" fill="#526E2B"/>
<path d="M24.9075 30.0302L38.744 22.1303L38.6264 21.9209L24.6604 29.8906L24.9075 30.0302Z" fill="#526E2B"/>
<path d="M22.5896 31.0774L20.2717 32.3921L20.0247 32.8109L22.8249 31.217L22.5896 31.0774Z" fill="#526E2B"/>
<path d="M23.9778 29.4951L38.285 21.3276L38.1555 21.1182L23.7307 29.3554L23.9778 29.4951Z" fill="#526E2B"/>
<path d="M21.6483 30.5422L21.2012 30.7982L20.9541 31.217L21.8954 30.6818L21.6483 30.5422Z" fill="#526E2B"/>
<path d="M38.0498 20.9321L37.9321 20.7227L23.272 29.0879L23.5073 29.2275L38.0498 20.9321Z" fill="#526E2B"/>
<path d="M37.4615 19.9197L22.6013 28.4129L22.4719 28.634L22.5778 28.7038L37.5792 20.1291L37.4615 19.9197Z" fill="#526E2B"/>
<path d="M37.2262 19.5242L23.0603 27.6102L22.825 28.029L37.3557 19.7336L37.2262 19.5242Z" fill="#526E2B"/>
<path d="M36.7673 18.7332L23.9897 26.0164L23.7544 26.4352L36.885 18.9309L36.7673 18.7332Z" fill="#526E2B"/>
<path d="M36.5319 18.3259L24.4602 25.2252L24.2131 25.6324L36.6495 18.5353L36.5319 18.3259Z" fill="#526E2B"/>
<path d="M36.0615 17.5347L25.3899 23.6312L25.1428 24.0384L36.1909 17.7441L36.0615 17.5347Z" fill="#526E2B"/>
<path d="M35.8377 17.1392L25.8604 22.8285L25.6133 23.2473L35.9554 17.3369L35.8377 17.1392Z" fill="#526E2B"/>
<path d="M35.367 16.3364L26.7898 21.2346L26.5427 21.6534L35.4847 16.5458L35.367 16.3364Z" fill="#526E2B"/>
<path d="M35.1318 15.9407L27.2487 20.4433L27.0134 20.8505L35.2612 16.1501L35.1318 15.9407Z" fill="#526E2B"/>
<path d="M34.6729 15.1379L28.1782 18.8494L27.9429 19.2566L34.7906 15.3474L34.6729 15.1379Z" fill="#526E2B"/>
<path d="M34.4377 14.7424L28.6489 18.0467L28.4019 18.4655L34.5553 14.9519L34.4377 14.7424Z" fill="#526E2B"/>
<path d="M33.967 13.9512L29.5784 16.4526L29.3313 16.8715L34.0964 14.149L33.967 13.9512Z" fill="#526E2B"/>
<path d="M33.7435 13.5439L30.0491 15.6614L29.802 16.0686L33.8612 13.7534L33.7435 13.5439Z" fill="#526E2B"/>
<path d="M33.2728 12.7529L30.9785 14.0676L30.7314 14.4748L33.3905 12.9624L33.2728 12.7529Z" fill="#526E2B"/>
<path d="M33.0376 12.3457L31.4375 13.2648L31.2021 13.6837L33.167 12.5551L33.0376 12.3457Z" fill="#526E2B"/>
<path d="M32.5787 11.5544L32.3669 11.6708L32.1316 12.0896L32.6963 11.7639L32.5787 11.5544Z" fill="#526E2B"/>
</g>
<defs>
<clipPath id="clip0_1007_1184">
<rect width="55.6756" height="47.3178" fill="white" transform="translate(4.67017 4.34106)"/>
</clipPath>
</defs>
</svg>
