<svg width="24" height="14" viewBox="0 0 24 14" fill="none" xmlns="http://www.w3.org/2000/svg">
    <path
        d="M2.1875 1.0625H0.4375C0.191406 1.0625 0 1.28125 0 1.5V3.25C0 3.49609 0.191406 3.6875 0.4375 3.6875H2.1875C2.40625 3.6875 2.625 3.49609 2.625 3.25V1.5C2.625 1.28125 2.40625 1.0625 2.1875 1.0625ZM2.1875 5.4375H0.4375C0.191406 5.4375 0 5.65625 0 5.875V7.625C0 7.87109 0.191406 8.0625 0.4375 8.0625H2.1875C2.40625 8.0625 2.625 7.87109 2.625 7.625V5.875C2.625 5.65625 2.40625 5.4375 2.1875 5.4375ZM2.1875 9.8125H0.4375C0.191406 9.8125 0 10.0312 0 10.25V12C0 12.2461 0.191406 12.4375 0.4375 12.4375H2.1875C2.40625 12.4375 2.625 12.2461 2.625 12V10.25C2.625 10.0312 2.40625 9.8125 2.1875 9.8125ZM13.5625 6.09375H4.8125C4.56641 6.09375 4.375 6.3125 4.375 6.53125V6.96875C4.375 7.21484 4.56641 7.40625 4.8125 7.40625H13.5625C13.7812 7.40625 14 7.21484 14 6.96875V6.53125C14 6.3125 13.7812 6.09375 13.5625 6.09375ZM13.5625 10.4688H4.8125C4.56641 10.4688 4.375 10.6875 4.375 10.9062V11.3438C4.375 11.5898 4.56641 11.7812 4.8125 11.7812H13.5625C13.7812 11.7812 14 11.5898 14 11.3438V10.9062C14 10.6875 13.7812 10.4688 13.5625 10.4688ZM13.5625 1.71875H4.8125C4.56641 1.71875 4.375 1.9375 4.375 2.15625V2.59375C4.375 2.83984 4.56641 3.03125 4.8125 3.03125H13.5625C13.7812 3.03125 14 2.83984 14 2.59375V2.15625C14 1.9375 13.7812 1.71875 13.5625 1.71875Z"
        fill="#8A8A8A" />
    <path
        d="M17.9805 6C17.6289 6 17.4531 6.42969 17.707 6.68359L20.207 9.18359C20.3633 9.33984 20.6172 9.33984 20.7734 9.18359L23.2734 6.68359C23.5273 6.42969 23.3516 6 23 6H17.9805Z"
        fill="#8A8A8A" />
</svg>