<svg width="26" height="15" viewBox="0 0 26 15" fill="none" xmlns="http://www.w3.org/2000/svg">
    <path
        d="M14.5898 2.85547L12.8945 1.16016C12.6484 0.886719 12.3203 0.75 11.9648 0.75C11.6367 0.75 11.3086 0.886719 11.0352 1.16016L1.38281 10.8125C0.863281 11.332 0.863281 12.1523 1.38281 12.6719L3.07812 14.3672C3.32422 14.6406 3.65234 14.75 4.00781 14.75C4.33594 14.75 4.66406 14.6406 4.9375 14.3672L14.5898 4.71484C15.1094 4.19531 15.1094 3.375 14.5898 2.85547ZM4.00781 13.4375L2.3125 11.7422L8.41016 5.61719L10.1328 7.33984L4.00781 13.4375ZM11.0625 6.41016L9.33984 4.6875L11.9648 2.0625L13.6875 3.78516L11.0625 6.41016ZM12.8125 8.625L12.0742 10.1016L10.625 10.8125L12.0742 11.5508L12.8125 13L13.5234 11.5508L15 10.8125L13.5234 10.1016L12.8125 8.625ZM7.125 3.375L7.5625 2.5L8.4375 2.0625L7.5625 1.625L7.125 0.75L6.6875 1.625L5.8125 2.0625L6.6875 2.5L7.125 3.375ZM3.1875 5.125L3.89844 3.67578L5.375 2.9375L3.89844 2.22656L3.1875 0.75L2.44922 2.22656L1 2.9375L2.44922 3.67578L3.1875 5.125Z"
        fill="#8A8A8A" />
    <path
        d="M19.9805 7C19.6289 7 19.4531 7.42969 19.707 7.68359L22.207 10.1836C22.3633 10.3398 22.6172 10.3398 22.7734 10.1836L25.2734 7.68359C25.5273 7.42969 25.3516 7 25 7H19.9805Z"
        fill="#8A8A8A" />
</svg>