<svg width="22" height="13" viewBox="0 0 22 13" fill="none" xmlns="http://www.w3.org/2000/svg">
    <path
        d="M0.703125 9.15625H7.89453C8.08594 9.15625 8.25 9.01953 8.25 8.82812V8.19922C8.25 8.00781 8.08594 7.84375 7.89453 7.84375H0.703125C0.511719 7.84375 0.375 8.00781 0.375 8.19922V8.82812C0.375 9.01953 0.511719 9.15625 0.703125 9.15625ZM0.703125 2.15625H7.89453C8.08594 2.15625 8.25 2.01953 8.25 1.82812V1.19922C8.25 1.00781 8.08594 0.84375 7.89453 0.84375H0.703125C0.511719 0.84375 0.375 1.00781 0.375 1.19922V1.82812C0.375 2.01953 0.511719 2.15625 0.703125 2.15625ZM12.1875 4.34375H0.8125C0.566406 4.34375 0.375 4.5625 0.375 4.78125V5.21875C0.375 5.46484 0.566406 5.65625 0.8125 5.65625H12.1875C12.4062 5.65625 12.625 5.46484 12.625 5.21875V4.78125C12.625 4.5625 12.4062 4.34375 12.1875 4.34375ZM12.1875 11.3438H0.8125C0.566406 11.3438 0.375 11.5625 0.375 11.7812V12.2188C0.375 12.4648 0.566406 12.6562 0.8125 12.6562H12.1875C12.4062 12.6562 12.625 12.4648 12.625 12.2188V11.7812C12.625 11.5625 12.4062 11.3438 12.1875 11.3438Z"
        fill="#8A8A8A" />
    <path
        d="M15.9805 5C15.6289 5 15.4531 5.42969 15.707 5.68359L18.207 8.18359C18.3633 8.33984 18.6172 8.33984 18.7734 8.18359L21.2734 5.68359C21.5273 5.42969 21.3516 5 21 5H15.9805Z"
        fill="#8A8A8A" />
</svg>