<svg width="207" height="48" viewBox="0 0 207 48" fill="none" xmlns="http://www.w3.org/2000/svg">
<path d="M6.50343 26.7644L9.87121 32.5115L18.9472 48L28.0231 32.5115L37.0991 17.023L37.8945 15.6632L36.3017 15.6632L26.0182 15.6632L22.8325 15.6632L-0.000206981 15.6632L6.50343 26.7644ZM7.08804 24.6209L2.75996 17.2345L20.0742 17.2345L7.08804 24.6209ZM11.2513 31.7277L18.9472 27.3499L26.643 31.7277L18.9472 44.8611L11.2513 31.7277ZM27.4385 30.3679L20.54 26.4434L33.001 19.3535L34.3389 18.5924L27.4385 30.3679ZM14.1456 28.2678L10.4539 30.3679L7.88351 25.9807L23.258 17.2345L33.5415 17.2345L14.1456 28.2678Z" fill="#1A1A1A"/>
<circle cx="19.1998" cy="8.58947" r="8.58947" fill="#1A1A1A"/>
<path d="M46.0654 47.1789V1.0105H55.8549V39.0947H74.5812V47.1789H46.0654Z" fill="#1A1A1A"/>
<path d="M102.004 47.1789L100.14 42.3789H99.8877C98.2667 44.421 96.593 45.8421 94.8667 46.6421C93.1614 47.421 90.9299 47.8105 88.172 47.8105C84.7825 47.8105 82.1088 46.8421 80.1509 44.9052C78.2141 42.9684 77.2456 40.2105 77.2456 36.6315C77.2456 32.8842 78.5509 30.1263 81.1614 28.3579C83.793 26.5684 87.7509 25.5789 93.0351 25.3894L99.1614 25.2V23.6526C99.1614 20.0737 97.3299 18.2842 93.6667 18.2842C90.8456 18.2842 87.5299 19.1368 83.7193 20.8421L80.5299 14.3368C84.593 12.2105 89.0983 11.1473 94.0456 11.1473C98.7825 11.1473 102.414 12.1789 104.94 14.2421C107.467 16.3052 108.73 19.4421 108.73 23.6526V47.1789H102.004ZM99.1614 30.821L95.4351 30.9473C92.6351 31.0316 90.5509 31.5368 89.1825 32.4631C87.8141 33.3894 87.1299 34.8 87.1299 36.6947C87.1299 39.4105 88.6877 40.7684 91.8035 40.7684C94.0351 40.7684 95.8141 40.1263 97.1404 38.8421C98.4877 37.5579 99.1614 35.8526 99.1614 33.7263V30.821Z" fill="#1A1A1A"/>
<path d="M139.394 47.1789L138.1 42.6631H137.594C136.563 44.3052 135.1 45.5789 133.205 46.4842C131.31 47.3684 129.152 47.8105 126.731 47.8105C122.584 47.8105 119.457 46.7052 117.352 44.4947C115.247 42.2631 114.194 39.0631 114.194 34.8947V11.8737H123.826V32.4947C123.826 35.0421 124.278 36.9579 125.184 38.2421C126.089 39.5052 127.531 40.1368 129.51 40.1368C132.205 40.1368 134.152 39.2421 135.352 37.4526C136.552 35.6421 137.152 32.6526 137.152 28.4842V11.8737H146.784V47.1789H139.394Z" fill="#1A1A1A"/>
<path d="M172.301 11.2105C173.606 11.2105 174.69 11.3052 175.553 11.4947L174.827 20.5263C174.048 20.3158 173.101 20.2105 171.985 20.2105C168.911 20.2105 166.511 21 164.785 22.5789C163.08 24.1579 162.227 26.3684 162.227 29.2105V47.1789H152.596V11.8737H159.89L161.311 17.8105H161.785C162.88 15.8315 164.353 14.2421 166.206 13.0421C168.08 11.821 170.111 11.2105 172.301 11.2105Z" fill="#1A1A1A"/>
<path d="M200.092 47.1789L198.228 42.3789H197.976C196.355 44.421 194.681 45.8421 192.955 46.6421C191.249 47.421 189.018 47.8105 186.26 47.8105C182.87 47.8105 180.197 46.8421 178.239 44.9052C176.302 42.9684 175.334 40.2105 175.334 36.6315C175.334 32.8842 176.639 30.1263 179.249 28.3579C181.881 26.5684 185.839 25.5789 191.123 25.3894L197.249 25.2V23.6526C197.249 20.0737 195.418 18.2842 191.755 18.2842C188.934 18.2842 185.618 19.1368 181.807 20.8421L178.618 14.3368C182.681 12.2105 187.186 11.1473 192.134 11.1473C196.87 11.1473 200.502 12.1789 203.028 14.2421C205.555 16.3052 206.818 19.4421 206.818 23.6526V47.1789H200.092ZM197.249 30.821L193.523 30.9473C190.723 31.0316 188.639 31.5368 187.27 32.4631C185.902 33.3894 185.218 34.8 185.218 36.6947C185.218 39.4105 186.776 40.7684 189.892 40.7684C192.123 40.7684 193.902 40.1263 195.228 38.8421C196.576 37.5579 197.249 35.8526 197.249 33.7263V30.821Z" fill="#1A1A1A"/>
</svg>
